<?xml version="1.0" standalone="no"?>
<!DOCTYPE svg PUBLIC "-//W3C//DTD SVG 20010904//EN"
 "http://www.w3.org/TR/2001/REC-SVG-20010904/DTD/svg10.dtd">
<svg version="1.0" xmlns="http://www.w3.org/2000/svg"
 width="612.000000pt" height="612.000000pt" viewBox="0 0 612.000000 612.000000"
 preserveAspectRatio="xMidYMid meet">
<metadata>
Created by potrace 1.16, written by Peter Selinger 2001-2019
</metadata>
<g transform="translate(0.000000,612.000000) scale(0.100000,-0.100000)"
fill="#ffffff" stroke="none">
<path d="M2741 4253 c-73 -147 -157 -294 -257 -445 -46 -71 -81 -128 -78 -128
8 0 153 110 244 186 75 62 76 63 93 136 26 111 64 358 55 358 -2 0 -27 -48
-57 -107z"/>
<path d="M3087 4147 c-289 -297 -565 -521 -895 -729 l-133 -83 -22 -65 c-53
-156 -162 -280 -247 -280 -44 0 -66 21 -81 76 l-11 38 -34 -60 c-43 -74 -94
-196 -94 -223 0 -42 193 -110 314 -111 l49 0 -21 23 c-54 58 -10 86 109 69 45
-7 85 -9 90 -6 5 3 0 17 -11 31 -48 61 -11 133 88 168 80 29 452 33 452 4 0
-5 -7 -9 -16 -9 -9 0 -46 -14 -81 -32 -68 -33 -101 -71 -138 -158 -29 -68 -54
-101 -91 -116 -43 -18 -108 -18 -167 0 -26 8 -47 11 -47 7 0 -21 66 -95 112
-125 65 -43 150 -66 245 -66 l72 0 -21 35 c-51 88 6 181 157 256 120 59 340
109 481 109 30 0 54 3 54 8 -1 15 -108 92 -168 120 -35 17 -93 38 -130 47 -37
9 -74 19 -82 22 -10 3 4 17 40 39 234 150 464 200 730 159 91 -13 232 -50 295
-76 29 -12 28 -13 -41 -21 -40 -5 -102 -19 -140 -31 l-68 -23 90 -28 c110 -35
181 -70 261 -130 146 -110 213 -246 213 -432 0 -115 -26 -218 -85 -344 -43
-91 -44 -94 -15 -60 43 48 121 163 160 235 61 110 124 155 180 125 25 -13 50
-66 51 -107 1 -25 4 -21 26 25 28 59 45 159 37 212 -28 182 -90 286 -249 416
-93 76 -132 159 -105 223 25 62 143 78 265 37 39 -14 71 -23 72 -22 5 5 -47
93 -75 126 -43 51 -126 97 -217 120 -64 17 -121 22 -285 25 -216 5 -293 17
-357 56 -39 24 -53 47 -53 86 0 55 92 115 201 131 l54 7 -35 26 c-59 43 -139
72 -217 77 -138 9 -250 -29 -438 -148 -99 -63 -196 -113 -203 -105 -2 2 14 30
36 62 96 141 322 547 311 558 -2 2 -80 -74 -172 -168z m-718 -744 c-8 -10 -40
-46 -71 -81 -32 -34 -58 -69 -58 -77 0 -12 -105 -75 -125 -75 -2 0 4 19 14 43
11 23 22 50 25 59 3 9 27 28 53 42 26 13 73 42 103 64 60 44 80 52 59 25z"/>
<path d="M3270 3203 c-95 -17 -240 -67 -240 -83 0 -4 22 -10 49 -14 118 -16
269 -85 374 -171 228 -188 276 -478 120 -723 -157 -248 -524 -380 -905 -326
l-43 6 52 -25 c69 -34 189 -74 293 -98 110 -26 363 -37 452 -19 247 48 499
253 619 505 57 118 72 190 67 312 -4 93 -8 109 -41 175 -99 200 -287 297 -682
354 l-50 7 110 53 110 53 -130 -1 c-71 0 -141 -3 -155 -5z"/>
<path d="M3502 2669 c-3 -60 -19 -116 -54 -182 -96 -179 -301 -240 -701 -208
-386 31 -557 6 -709 -105 -50 -37 -136 -140 -125 -150 3 -3 37 1 75 10 173 39
360 31 592 -26 269 -67 546 -31 745 97 82 52 150 127 191 211 33 66 38 87 42
165 4 73 0 102 -18 159 -12 39 -26 70 -30 70 -4 0 -7 -19 -8 -41z"/>
</g>
</svg>
